<svg width="18" height="19" viewBox="0 0 18 19" fill="none" xmlns="http://www.w3.org/2000/svg">
<path d="M6.25 0.833344C6.75626 0.833344 7.16667 1.24375 7.16667 1.75001V2.66668H10.8333V1.75001C10.8333 1.24375 11.2437 0.833344 11.75 0.833344C12.2563 0.833344 12.6667 1.24375 12.6667 1.75001V2.66668H15.4167C16.4292 2.66668 17.25 3.48749 17.25 4.50001V16.4167C17.25 17.4292 16.4292 18.25 15.4167 18.25H2.58333C1.57081 18.25 0.75 17.4292 0.75 16.4167V4.50001C0.75 3.48749 1.57081 2.66668 2.58333 2.66668H5.33333V1.75001C5.33333 1.24375 5.74374 0.833344 6.25 0.833344ZM5.33333 4.50001H2.58333V7.25001H15.4167V4.50001H12.6667V5.41668C12.6667 5.92294 12.2563 6.33334 11.75 6.33334C11.2437 6.33334 10.8333 5.92294 10.8333 5.41668V4.50001H7.16667V5.41668C7.16667 5.92294 6.75626 6.33334 6.25 6.33334C5.74374 6.33334 5.33333 5.92294 5.33333 5.41668V4.50001ZM15.4167 9.08334H2.58333V16.4167H15.4167V9.08334Z" fill="white"/>
</svg>
