<svg width="18" height="18" viewBox="0 0 18 18" fill="none" xmlns="http://www.w3.org/2000/svg">
<path d="M0.75 2.58333C0.75 1.57081 1.57081 0.75 2.58333 0.75H15.4167C16.4292 0.75 17.25 1.57081 17.25 2.58333V15.4167C17.25 16.4292 16.4292 17.25 15.4167 17.25H2.58333C1.57081 17.25 0.75 16.4292 0.75 15.4167V2.58333ZM15.4167 2.58333H2.58333V15.4167H15.4167V2.58333ZM9 4.41667C9.50626 4.41667 9.91667 4.82707 9.91667 5.33333V12.6667C9.91667 13.1729 9.50626 13.5833 9 13.5833C8.49374 13.5833 8.08333 13.1729 8.08333 12.6667V5.33333C8.08333 4.82707 8.49374 4.41667 9 4.41667ZM12.6667 6.25C13.1729 6.25 13.5833 6.66041 13.5833 7.16667V12.6667C13.5833 13.1729 13.1729 13.5833 12.6667 13.5833C12.1604 13.5833 11.75 13.1729 11.75 12.6667V7.16667C11.75 6.66041 12.1604 6.25 12.6667 6.25ZM5.33333 8.08333C5.83959 8.08333 6.25 8.49374 6.25 9V12.6667C6.25 13.1729 5.83959 13.5833 5.33333 13.5833C4.82707 13.5833 4.41667 13.1729 4.41667 12.6667V9C4.41667 8.49374 4.82707 8.08333 5.33333 8.08333Z" fill="white"/>
</svg>
