<svg width="20" height="19" viewBox="0 0 20 19" fill="none" xmlns="http://www.w3.org/2000/svg">
<path d="M9.08333 2.66668C7.05825 2.66668 5.41667 4.30829 5.41667 6.33334C5.41667 6.36306 5.4171 6.39409 5.41787 6.42706C5.42784 6.85334 5.14257 7.2302 4.72959 7.33632C3.54278 7.64129 2.66667 8.71953 2.66667 10C2.66667 11.5188 3.89791 12.75 5.41667 12.75H6.33333C6.83959 12.75 7.25 13.1604 7.25 13.6667C7.25 14.1729 6.83959 14.5833 6.33333 14.5833H5.41667C2.8854 14.5833 0.833332 12.5313 0.833332 10C0.833332 8.10935 1.97752 6.48776 3.61015 5.78676C3.88451 3.0058 6.23017 0.833344 9.08333 0.833344C11.1216 0.833344 12.8993 1.9419 13.8491 3.58631C16.8023 3.68255 19.1667 6.10683 19.1667 9.08334C19.1667 12.1209 16.7043 14.5833 13.6667 14.5833C13.1604 14.5833 12.75 14.1729 12.75 13.6667C12.75 13.1604 13.1604 12.75 13.6667 12.75C15.6917 12.75 17.3333 11.1084 17.3333 9.08334C17.3333 7.05829 15.6917 5.41668 13.6667 5.41668C13.5652 5.41668 13.465 5.42077 13.3658 5.42879C12.9745 5.46046 12.6065 5.23939 12.4506 4.87905C11.8868 3.57577 10.5902 2.66668 9.08333 2.66668ZM9.35182 7.5185C9.7098 7.16052 10.2902 7.16052 10.6482 7.5185L12.4815 9.35183C12.8395 9.70981 12.8395 10.2902 12.4815 10.6482C12.1235 11.0062 11.5431 11.0062 11.1852 10.6482L10.9167 10.3797V17.3333C10.9167 17.8396 10.5063 18.25 10 18.25C9.49374 18.25 9.08333 17.8396 9.08333 17.3333V10.3797L8.81485 10.6482C8.45687 11.0062 7.87646 11.0062 7.51848 10.6482C7.1605 10.2902 7.1605 9.70981 7.51848 9.35183L9.35182 7.5185Z" fill="white"/>
</svg>
