<svg width="20" height="18" viewBox="0 0 20 18" fill="none" xmlns="http://www.w3.org/2000/svg">
<path d="M6.96012 0.79704C7.14828 0.73432 7.35171 0.73432 7.53987 0.79704L12.75 2.53375L16.7536 1.19922C17.9407 0.803507 19.1667 1.68712 19.1667 2.93847V13.8393C19.1667 14.6284 18.6617 15.329 17.9131 15.5786L13.0399 17.203C12.8517 17.2657 12.6483 17.2657 12.4601 17.203L7.25 15.4663L3.24642 16.8008C2.05928 17.1965 0.833332 16.3129 0.833332 15.0615V4.1607C0.833332 3.37157 1.33829 2.67099 2.08691 2.42144L6.96012 0.79704ZM8.16667 13.8393L11.8333 15.0615V4.1607L8.16667 2.93847V13.8393ZM6.33333 2.93847L2.66667 4.1607V15.0615L6.33333 13.8393V2.93847ZM13.6667 4.1607V15.0615L17.3333 13.8393V2.93847L13.6667 4.1607Z" fill="white"/>
</svg>
