<svg width="22" height="22" viewBox="0 0 22 22" fill="none" xmlns="http://www.w3.org/2000/svg">
<g opacity="0.5">
<path d="M9.16671 3.66671C6.12914 3.66671 3.66671 6.12914 3.66671 9.16671C3.66671 12.2043 6.12914 14.6667 9.16671 14.6667C12.2043 14.6667 14.6667 12.2043 14.6667 9.16671C14.6667 6.12914 12.2043 3.66671 9.16671 3.66671ZM1.83337 9.16671C1.83337 5.11662 5.11662 1.83337 9.16671 1.83337C13.2168 1.83337 16.5 5.11662 16.5 9.16671C16.5 10.8614 15.9252 12.4218 14.9599 13.6635L19.8982 18.6019C20.2562 18.9598 20.2562 19.5402 19.8982 19.8982C19.5402 20.2562 18.9598 20.2562 18.6019 19.8982L13.6635 14.9599C12.4218 15.9252 10.8614 16.5 9.16671 16.5C5.11662 16.5 1.83337 13.2168 1.83337 9.16671Z" fill="white"/>
</g>
</svg>
